<svg width="27" height="27" viewBox="0 0 27 27" fill="none" xmlns="http://www.w3.org/2000/svg">
<path d="M12.1388 18.3263C12.5775 18.765 13.2863 18.765 13.725 18.3263L17.7638 14.2875C18.2025 13.8488 18.2025 13.14 17.7638 12.7013L13.725 8.6625C13.2863 8.22375 12.5775 8.22375 12.1388 8.6625C11.7 9.10125 11.7 9.81 12.1388 10.2487L14.2537 12.375H4.5C3.88125 12.375 3.375 12.8813 3.375 13.5C3.375 14.1187 3.88125 14.625 4.5 14.625H14.2537L12.1388 16.74C11.7 17.1788 11.7113 17.8988 12.1388 18.3263ZM21.375 3.375H5.625C4.37625 3.375 3.375 4.3875 3.375 5.625V9C3.375 9.61875 3.88125 10.125 4.5 10.125C5.11875 10.125 5.625 9.61875 5.625 9V6.75C5.625 6.13125 6.13125 5.625 6.75 5.625H20.25C20.8687 5.625 21.375 6.13125 21.375 6.75V20.25C21.375 20.8687 20.8687 21.375 20.25 21.375H6.75C6.13125 21.375 5.625 20.8687 5.625 20.25V18C5.625 17.3813 5.11875 16.875 4.5 16.875C3.88125 16.875 3.375 17.3813 3.375 18V21.375C3.375 22.6125 4.3875 23.625 5.625 23.625H21.375C22.6125 23.625 23.625 22.6125 23.625 21.375V5.625C23.625 4.3875 22.6125 3.375 21.375 3.375Z" fill="#F12A65"/>
</svg>
