<svg width="425" height="368" viewBox="0 0 425 368" fill="none" xmlns="http://www.w3.org/2000/svg">
<g clip-path="url(#clip0)">
<g opacity="0.5">
<path opacity="0.5" d="M64.4994 65.511H62.8149V75.0562H64.4994V65.511Z" fill="#2C537F"/>
<path opacity="0.5" d="M68.4302 71.1256V69.4412H58.885V71.1256H68.4302Z" fill="#2C537F"/>
</g>
<g opacity="0.5">
<path opacity="0.5" d="M124.375 273.249H122.691V282.794H124.375V273.249Z" fill="#2C537F"/>
<path opacity="0.5" d="M128.3 278.864V277.179H118.755V278.864H128.3Z" fill="#2C537F"/>
</g>
<g opacity="0.5">
<path opacity="0.5" d="M40.5633 162.374H38.8789V171.919H40.5633V162.374Z" fill="#2C537F"/>
<path opacity="0.5" d="M44.4941 167.989V166.304H34.949V167.989H44.4941Z" fill="#2C537F"/>
</g>
<g opacity="0.5">
<path opacity="0.5" d="M335.467 0H333.782V9.54517H335.467V0Z" fill="#2C537F"/>
<path opacity="0.5" d="M339.397 5.61487V3.93042L329.852 3.93042V5.61487L339.397 5.61487Z" fill="#2C537F"/>
</g>
<g opacity="0.5">
<path opacity="0.5" d="M51.2416 23.739H49.5571V33.2842H51.2416V23.739Z" fill="#2C537F"/>
<path opacity="0.5" d="M55.167 29.3536V27.6692H45.6218V29.3536H55.167Z" fill="#2C537F"/>
</g>
<path opacity="0.5" d="M83.5139 239.186C83.05 238.983 82.6767 238.617 82.465 238.157C82.2533 237.698 82.2179 237.176 82.3656 236.692C82.3895 236.618 82.4048 236.542 82.4112 236.464C82.4452 236.235 82.3992 236 82.281 235.801C82.1628 235.601 81.9795 235.448 81.7619 235.367C81.5443 235.287 81.3057 235.283 81.0859 235.358C80.8661 235.432 80.6785 235.58 80.5547 235.776C80.5083 235.839 80.4693 235.907 80.4384 235.979C80.2359 236.443 79.8699 236.816 79.4101 237.028C78.9503 237.239 78.4288 237.275 77.9446 237.127C77.8707 237.103 77.7944 237.088 77.717 237.081C77.4874 237.047 77.2532 237.093 77.0535 237.212C76.8538 237.33 76.7008 237.513 76.6202 237.731C76.5395 237.948 76.5362 238.187 76.6106 238.407C76.685 238.627 76.8328 238.814 77.029 238.938C77.0918 238.984 77.1597 239.023 77.2314 239.054C77.6953 239.257 78.0686 239.623 78.2803 240.082C78.492 240.542 78.5274 241.064 78.3796 241.548C78.3558 241.622 78.3405 241.698 78.3341 241.776C78.3001 242.005 78.3461 242.239 78.4643 242.439C78.5825 242.639 78.7657 242.792 78.9833 242.872C79.2009 242.953 79.4396 242.956 79.6594 242.882C79.8792 242.808 80.0667 242.66 80.1905 242.464C80.237 242.401 80.276 242.333 80.3069 242.261C80.5094 241.797 80.8754 241.424 81.3352 241.212C81.7949 241.001 82.3165 240.965 82.8007 241.113C82.8745 241.137 82.9509 241.152 83.0283 241.159C83.2578 241.193 83.4921 241.147 83.6918 241.028C83.8915 240.91 84.0445 240.727 84.1251 240.509C84.2058 240.292 84.2091 240.053 84.1347 239.833C84.0602 239.613 83.9125 239.426 83.7162 239.302C83.6535 239.256 83.5856 239.217 83.5139 239.186Z" fill="#2C537F"/>
<path opacity="0.5" d="M75.168 329.908C74.7041 329.705 74.3308 329.339 74.1191 328.879C73.9074 328.42 73.872 327.898 74.0198 327.414C74.0436 327.34 74.0589 327.264 74.0653 327.186C74.0993 326.957 74.0533 326.722 73.9351 326.523C73.8169 326.323 73.6336 326.17 73.4161 326.089C73.1985 326.009 72.9598 326.005 72.74 326.08C72.5202 326.154 72.3327 326.302 72.2089 326.498C72.1624 326.561 72.1234 326.629 72.0925 326.701C71.891 327.164 71.5262 327.538 71.0675 327.751C70.6087 327.963 70.0879 328 69.6038 327.854C69.5299 327.83 69.4535 327.815 69.3762 327.808C69.1466 327.774 68.9124 327.82 68.7127 327.939C68.513 328.057 68.36 328.24 68.2793 328.458C68.1987 328.675 68.1953 328.914 68.2698 329.134C68.3442 329.353 68.492 329.541 68.6882 329.665C68.751 329.711 68.8189 329.75 68.8906 329.781C69.3545 329.984 69.7278 330.35 69.9395 330.809C70.1512 331.269 70.1865 331.791 70.0388 332.275C70.0149 332.349 69.9997 332.425 69.9933 332.503C69.9593 332.732 70.0053 332.966 70.1235 333.166C70.2417 333.366 70.4249 333.519 70.6425 333.599C70.8601 333.68 71.0988 333.683 71.3186 333.609C71.5384 333.535 71.7259 333.387 71.8497 333.191C71.8962 333.128 71.9352 333.06 71.9661 332.988C72.1686 332.524 72.5345 332.151 72.9943 331.939C73.4541 331.728 73.9757 331.692 74.4598 331.84C74.5337 331.864 74.6101 331.879 74.6875 331.885C74.917 331.919 75.1513 331.873 75.351 331.755C75.5507 331.637 75.7036 331.454 75.7843 331.236C75.8649 331.019 75.8683 330.78 75.7938 330.56C75.7194 330.34 75.5717 330.153 75.3754 330.029C75.3113 329.98 75.2417 329.94 75.168 329.908Z" fill="#2C537F"/>
<path opacity="0.5" d="M382.211 129.09C381.748 128.887 381.374 128.522 381.163 128.062C380.951 127.602 380.915 127.08 381.063 126.596C381.087 126.522 381.102 126.446 381.109 126.369C381.143 126.139 381.097 125.905 380.979 125.705C380.86 125.505 380.677 125.352 380.46 125.272C380.242 125.191 380.003 125.188 379.783 125.262C379.564 125.337 379.376 125.484 379.252 125.681C379.206 125.743 379.167 125.811 379.136 125.883C378.934 126.347 378.57 126.72 378.111 126.933C377.652 127.146 377.131 127.182 376.647 127.036C376.573 127.012 376.497 126.997 376.42 126.991C376.19 126.957 375.956 127.003 375.756 127.121C375.556 127.239 375.403 127.422 375.323 127.64C375.242 127.858 375.239 128.096 375.313 128.316C375.388 128.536 375.535 128.723 375.732 128.847C375.794 128.894 375.862 128.933 375.934 128.964C376.398 129.166 376.771 129.532 376.983 129.992C377.195 130.452 377.23 130.973 377.082 131.457C377.058 131.531 377.043 131.608 377.037 131.685C377.003 131.915 377.049 132.149 377.167 132.348C377.285 132.548 377.468 132.701 377.686 132.782C377.904 132.862 378.142 132.866 378.362 132.791C378.582 132.717 378.769 132.569 378.893 132.373C378.94 132.31 378.979 132.242 379.01 132.171C379.212 131.707 379.578 131.333 380.038 131.122C380.498 130.91 381.019 130.875 381.503 131.022C381.577 131.046 381.654 131.061 381.731 131.068C381.96 131.102 382.195 131.056 382.394 130.938C382.594 130.819 382.747 130.636 382.828 130.419C382.908 130.201 382.912 129.962 382.837 129.743C382.763 129.523 382.615 129.335 382.419 129.211C382.355 129.163 382.285 129.122 382.211 129.09Z" fill="#2C537F"/>
<path opacity="0.5" d="M368.316 224.865C367.852 224.663 367.479 224.297 367.267 223.837C367.056 223.377 367.02 222.856 367.168 222.372C367.192 222.298 367.207 222.221 367.213 222.144C367.247 221.914 367.201 221.68 367.083 221.48C366.965 221.281 366.782 221.128 366.564 221.047C366.347 220.967 366.108 220.963 365.888 221.038C365.668 221.112 365.481 221.26 365.357 221.456C365.311 221.519 365.272 221.587 365.241 221.658C365.038 222.122 364.672 222.496 364.212 222.707C363.753 222.919 363.231 222.954 362.747 222.807C362.673 222.783 362.597 222.768 362.519 222.761C362.29 222.727 362.055 222.773 361.856 222.891C361.656 223.01 361.503 223.193 361.422 223.41C361.342 223.628 361.338 223.867 361.413 224.086C361.487 224.306 361.635 224.494 361.831 224.618C361.894 224.664 361.962 224.703 362.034 224.734C362.498 224.936 362.871 225.302 363.083 225.762C363.294 226.222 363.33 226.744 363.182 227.228C363.158 227.302 363.143 227.378 363.136 227.455C363.102 227.685 363.148 227.919 363.267 228.119C363.385 228.319 363.568 228.472 363.786 228.552C364.003 228.633 364.242 228.636 364.462 228.562C364.681 228.487 364.869 228.34 364.993 228.143C365.039 228.081 365.078 228.013 365.109 227.941C365.312 227.477 365.678 227.104 366.137 226.892C366.597 226.68 367.119 226.645 367.603 226.793C367.677 226.817 367.753 226.832 367.831 226.838C368.06 226.872 368.294 226.826 368.494 226.708C368.694 226.59 368.847 226.407 368.927 226.189C369.008 225.971 369.011 225.733 368.937 225.513C368.863 225.293 368.715 225.106 368.519 224.982C368.456 224.935 368.388 224.896 368.316 224.865Z" fill="#2C537F"/>
<path opacity="0.5" d="M378.671 33.9975C378.207 33.795 377.833 33.429 377.622 32.9692C377.41 32.5094 377.375 31.9879 377.522 31.5037C377.546 31.4298 377.562 31.3534 377.568 31.2761C377.602 31.0465 377.556 30.8123 377.438 30.6126C377.32 30.4129 377.136 30.2599 376.919 30.1793C376.701 30.0986 376.462 30.0952 376.243 30.1697C376.023 30.2441 375.835 30.3919 375.712 30.5881C375.665 30.6509 375.626 30.7188 375.595 30.7905C375.393 31.2544 375.027 31.6277 374.567 31.8394C374.107 32.0511 373.586 32.0865 373.101 31.9387C373.028 31.9149 372.951 31.8996 372.874 31.8932C372.644 31.8592 372.41 31.9052 372.21 32.0234C372.011 32.1416 371.858 32.3248 371.777 32.5424C371.696 32.76 371.693 32.9987 371.767 33.2185C371.842 33.4383 371.99 33.6258 372.186 33.7496C372.249 33.7961 372.316 33.8351 372.388 33.866C372.852 34.0685 373.225 34.4344 373.437 34.8942C373.649 35.354 373.684 35.8756 373.536 36.3597C373.513 36.4336 373.497 36.51 373.491 36.5874C373.457 36.8169 373.503 37.0512 373.621 37.2509C373.739 37.4506 373.923 37.6036 374.14 37.6842C374.358 37.7648 374.596 37.7682 374.816 37.6938C375.036 37.6193 375.224 37.4716 375.347 37.2753C375.394 37.2126 375.433 37.1447 375.464 37.073C375.666 36.6091 376.032 36.2358 376.492 36.024C376.952 35.8123 377.473 35.777 377.957 35.9247C378.031 35.9486 378.108 35.9639 378.185 35.9703C378.415 36.0042 378.649 35.9583 378.849 35.8401C379.048 35.7219 379.201 35.5386 379.282 35.321C379.363 35.1034 379.366 34.8647 379.291 34.6449C379.217 34.4252 379.069 34.2376 378.873 34.1138C378.81 34.0674 378.742 34.0283 378.671 33.9975Z" fill="#2C537F"/>
<path opacity="0.5" d="M411.156 282.895C410.692 282.693 410.319 282.327 410.107 281.867C409.895 281.407 409.86 280.886 410.008 280.401C410.032 280.328 410.047 280.251 410.053 280.174C410.087 279.944 410.041 279.71 409.923 279.51C409.805 279.311 409.622 279.158 409.404 279.077C409.186 278.996 408.948 278.993 408.728 279.067C408.508 279.142 408.321 279.29 408.197 279.486C408.15 279.549 408.111 279.616 408.08 279.688C407.878 280.152 407.512 280.525 407.052 280.737C406.592 280.949 406.071 280.984 405.587 280.836C405.513 280.813 405.436 280.797 405.359 280.791C405.13 280.757 404.895 280.803 404.696 280.921C404.496 281.039 404.343 281.223 404.262 281.44C404.182 281.658 404.178 281.896 404.253 282.116C404.327 282.336 404.475 282.524 404.671 282.647C404.734 282.694 404.802 282.733 404.873 282.764C405.337 282.966 405.711 283.332 405.922 283.792C406.134 284.252 406.169 284.773 406.022 285.257C405.998 285.331 405.983 285.408 405.976 285.485C405.942 285.715 405.988 285.949 406.106 286.149C406.225 286.348 406.408 286.501 406.625 286.582C406.843 286.663 407.082 286.666 407.301 286.591C407.521 286.517 407.709 286.369 407.833 286.173C407.879 286.11 407.918 286.042 407.949 285.971C408.151 285.507 408.517 285.133 408.977 284.922C409.437 284.71 409.959 284.675 410.443 284.822C410.517 284.846 410.593 284.862 410.67 284.868C410.9 284.902 411.134 284.856 411.334 284.738C411.534 284.62 411.687 284.436 411.767 284.219C411.848 284.001 411.851 283.762 411.777 283.543C411.702 283.323 411.555 283.135 411.358 283.012C411.296 282.965 411.228 282.926 411.156 282.895Z" fill="#2C537F"/>
<path opacity="0.5" d="M3.36888 133.764C5.22947 133.764 6.73777 132.256 6.73777 130.395C6.73777 128.534 5.22947 127.026 3.36888 127.026C1.5083 127.026 0 128.534 0 130.395C0 132.256 1.5083 133.764 3.36888 133.764Z" fill="#F12A65"/>
<path opacity="0.5" d="M379.293 77.2668C381.153 77.2668 382.662 75.7585 382.662 73.8979C382.662 72.0374 381.153 70.5291 379.293 70.5291C377.432 70.5291 375.924 72.0374 375.924 73.8979C375.924 75.7585 377.432 77.2668 379.293 77.2668Z" fill="#F12A65"/>
<path opacity="0.5" d="M226.07 204.086C228.165 204.086 229.863 202.387 229.863 200.292C229.863 198.197 228.165 196.498 226.07 196.498C223.974 196.498 222.276 198.197 222.276 200.292C222.276 202.387 223.974 204.086 226.07 204.086Z" fill="#F12A65"/>
<path opacity="0.5" d="M226.07 204.086C228.165 204.086 229.863 202.387 229.863 200.292C229.863 198.197 228.165 196.498 226.07 196.498C223.974 196.498 222.276 198.197 222.276 200.292C222.276 202.387 223.974 204.086 226.07 204.086Z" fill="#F12A65"/>
<path opacity="0.5" d="M421.135 178.561C422.996 178.561 424.504 177.053 424.504 175.192C424.504 173.332 422.996 171.823 421.135 171.823C419.275 171.823 417.767 173.332 417.767 175.192C417.767 177.053 419.275 178.561 421.135 178.561Z" fill="#F12A65"/>
<path opacity="0.5" d="M148.803 27.7048C150.898 27.7048 152.596 26.0062 152.596 23.911C152.596 21.8157 150.898 20.1172 148.803 20.1172C146.707 20.1172 145.009 21.8157 145.009 23.911C145.009 26.0062 146.707 27.7048 148.803 27.7048Z" fill="#2C537F"/>
<path opacity="0.5" d="M364.957 317.702C366.818 317.702 368.326 316.194 368.326 314.333C368.326 312.472 366.818 310.964 364.957 310.964C363.097 310.964 361.588 312.472 361.588 314.333C361.588 316.194 363.097 317.702 364.957 317.702Z" fill="#F12A65"/>
<path d="M155.141 192.998C153.148 199.467 156.153 207.116 161.985 210.52C164.433 211.946 167.251 212.665 169.623 214.212C174.778 217.571 176.811 224 178.485 229.919C180.408 236.722 182.335 243.915 180.574 250.759C179.451 255.125 176.897 258.984 175.445 263.253C174.231 266.829 173.808 270.626 174.206 274.382C174.418 276.375 174.914 278.429 176.28 279.916C178.253 282.04 181.429 282.359 184.282 282.87C190.314 284.01 195.989 286.565 200.843 290.323C205.696 294.081 209.59 298.936 212.205 304.489" stroke="url(#paint0_linear)" stroke-width="2" stroke-miterlimit="10"/>
<path d="M155.753 192.998C153.76 199.467 156.764 207.116 162.597 210.52C165.045 211.946 167.862 212.665 170.235 214.212C175.389 217.571 177.423 224 179.097 229.919C181.019 236.722 182.947 243.915 181.186 250.759C180.063 255.125 177.509 258.984 176.057 263.253C174.843 266.829 174.42 270.626 174.818 274.382C175.03 276.375 175.526 278.429 176.892 279.916C178.864 282.04 182.041 282.359 184.894 282.87C190.926 284.01 196.601 286.565 201.454 290.323C206.308 294.081 210.202 298.936 212.816 304.489" stroke="#4F4F4F" stroke-width="2" stroke-miterlimit="10"/>
<path d="M231.194 144.64C226.277 151.494 221.173 158.864 220.753 167.291C220.111 180.235 230.465 190.823 235.089 202.932C237.092 208.267 237.999 213.951 237.755 219.644C237.511 225.337 236.121 230.922 233.667 236.065C231.411 240.729 228.194 245.362 228.609 250.527C228.847 253.678 230.425 256.546 231.694 259.445C234.811 266.709 236.17 274.605 235.663 282.493C235.156 290.381 232.796 298.038 228.776 304.844" stroke="url(#paint1_linear)" stroke-width="2" stroke-miterlimit="10"/>
<path d="M231.8 144.64C226.889 151.519 221.785 158.869 221.355 167.291C220.712 180.235 231.067 190.823 235.69 202.932C237.694 208.267 238.601 213.951 238.357 219.644C238.112 225.337 236.722 230.922 234.269 236.065C232.013 240.729 228.796 245.362 229.21 250.527C229.448 253.678 231.026 256.546 232.296 259.445C235.412 266.709 236.772 274.605 236.265 282.493C235.758 290.381 233.398 298.038 229.377 304.844" stroke="#4F4F4F" stroke-width="2" stroke-miterlimit="10"/>
<path d="M300.179 206.291L302.557 225.67C302.871 228.244 303.139 231.052 301.758 233.257C300.448 235.336 297.989 236.328 296.077 237.865C289.8 242.924 290.371 252.59 292.536 260.35C294.701 268.11 297.817 276.446 294.807 283.912C293.563 286.992 291.368 289.587 289.749 292.481C286.972 297.425 285.872 303.136 286.613 308.759" stroke="url(#paint2_linear)" stroke-width="2" stroke-miterlimit="10"/>
<path d="M300.772 206.291L303.149 225.67C303.463 228.244 303.731 231.052 302.35 233.257C301.04 235.336 298.581 236.328 296.669 237.865C290.392 242.924 290.963 252.59 293.128 260.35C295.293 268.11 298.409 276.446 295.4 283.912C294.155 286.992 291.96 289.587 290.341 292.481C287.564 297.425 286.464 303.136 287.205 308.759" stroke="#4F4F4F" stroke-width="2" stroke-miterlimit="10"/>
<g opacity="0.7">
<path opacity="0.7" d="M361.826 126.642C361.822 117.576 359.673 108.64 355.554 100.563C351.436 92.4867 345.465 85.4993 338.129 80.172C330.794 74.8447 322.302 71.3287 313.347 69.9112C304.393 68.4937 295.23 69.2151 286.608 72.0162C287.083 68.7885 287.328 65.5311 287.341 62.2687C287.364 47.3794 281.603 33.0633 271.274 22.34C260.944 11.6166 246.853 5.32426 231.974 4.79017C217.094 4.25608 202.588 9.52198 191.517 19.4772C180.445 29.4324 173.672 43.2986 172.627 58.1512C164.003 55.344 154.836 54.6182 145.878 56.0331C136.919 57.4481 128.422 60.9636 121.083 66.2921C113.743 71.6207 107.769 78.6109 103.649 86.6911C99.5293 94.7713 97.3807 103.712 97.3789 112.782C97.3789 141.615 118.624 182.587 146.268 189.846L150.573 192.305L148.236 200.312H162.076L159.071 192.295L163.355 189.846C184.732 184.237 202.259 158.484 209.124 133.784C212.882 136.286 217.019 138.164 221.375 139.348L225.68 141.807L223.378 149.794H237.218L234.213 141.776L238.498 139.328C241.673 138.474 244.731 137.232 247.603 135.63C251.3 163.34 270.973 197.171 295.865 203.701L300.169 206.16L297.833 214.167H311.672L308.657 206.149L312.942 203.701C340.606 196.442 361.826 155.454 361.826 126.642Z" fill="url(#paint3_linear)"/>
</g>
<path d="M164.276 197.348H150.881L153.228 189.315H161.261L164.276 197.348Z" fill="#F12A65"/>
<path d="M212.816 112.65C212.816 143.345 187.934 188.309 157.245 188.309C126.556 188.309 101.673 143.34 101.673 112.65C101.673 97.9112 107.528 83.7758 117.951 73.3536C128.373 62.9315 142.508 57.0764 157.247 57.0764C171.986 57.0764 186.122 62.9315 196.544 73.3536C206.966 83.7758 212.821 97.9112 212.821 112.65H212.816Z" fill="#F12A65"/>
<path d="M161.261 189.649H153.229L148.54 186.973H165.951L161.261 189.649Z" fill="#4F4F4F"/>
<path opacity="0.1" d="M137.158 69.4617C137.158 69.4617 113.723 82.1835 110.374 107.627L137.158 69.4617Z" fill="white"/>
<path d="M236.95 148.494H223.555L225.902 140.461H233.935L236.95 148.494Z" fill="#2C537F"/>
<path d="M285.49 63.7963C285.49 94.4906 260.608 139.455 229.919 139.455C199.23 139.455 174.348 94.4856 174.348 63.7963C174.348 49.0572 180.203 34.9218 190.625 24.4996C201.047 14.0775 215.182 8.22241 229.922 8.22241C244.661 8.22241 258.796 14.0775 269.218 24.4996C279.64 34.9218 285.495 49.0572 285.495 63.7963H285.49Z" fill="#2C537F"/>
<path d="M233.935 140.795H225.903L221.213 138.114H238.624L233.935 140.795Z" fill="#4F4F4F"/>
<path opacity="0.1" d="M209.831 20.6079C209.831 20.6079 186.396 33.3297 183.047 58.7734L209.831 20.6079Z" fill="white"/>
<path d="M309.012 210.788H295.617L297.964 202.75H305.997L309.012 210.788Z" fill="#2CC1D7"/>
<path d="M357.552 126.085C357.552 156.779 332.669 201.743 301.98 201.743C271.291 201.743 246.404 156.779 246.404 126.085C246.404 111.346 252.259 97.2106 262.681 86.7885C273.103 76.3663 287.239 70.5112 301.978 70.5112C316.717 70.5112 330.852 76.3663 341.274 86.7885C351.697 97.2106 357.552 111.346 357.552 126.085Z" fill="#2CC1D7"/>
<path d="M305.997 203.084H297.964L293.275 200.408H310.686L305.997 203.084Z" fill="#4F4F4F"/>
<path opacity="0.1" d="M281.893 82.8967C281.893 82.8967 258.458 95.6186 255.109 121.062L281.893 82.8967Z" fill="white"/>
<g opacity="0.5">
<path opacity="0.5" d="M261.22 220.257C257.998 217.025 253.299 215.74 247.987 216.635C243.02 217.475 238.048 220.176 233.991 224.223C232.816 225.405 231.828 226.759 231.062 228.239C230.316 226.709 229.336 225.305 228.158 224.076C224.172 219.954 219.246 217.177 214.273 216.266C208.982 215.254 204.263 216.484 200.98 219.66C197.697 222.837 196.351 227.516 197.171 232.837C197.94 237.815 200.56 242.828 204.551 246.94C212.938 255.595 229.676 252.216 230.384 252.064L230.591 252.019L231.234 252.165C231.942 252.327 248.62 255.995 257.153 247.486C261.2 243.44 263.916 238.478 264.776 233.51C265.712 228.194 264.442 223.495 261.22 220.257ZM227.572 247.067C223.525 247.613 213.444 248.351 208.441 243.187C205.224 239.864 203.119 235.898 202.517 232.008C201.971 228.467 202.76 225.432 204.753 223.52C205.531 222.773 206.461 222.204 207.48 221.851C209.363 221.242 211.373 221.141 213.307 221.557C217.172 222.281 221.077 224.506 224.294 227.83C229.297 232.959 228.244 243.035 227.572 247.062V247.067ZM259.495 232.595C258.827 236.469 256.657 240.405 253.379 243.667C248.286 248.726 238.204 247.83 234.183 247.208C233.581 243.162 232.701 233.1 237.795 228.022C241.072 224.759 245.013 222.599 248.888 221.952C250.829 221.569 252.838 221.705 254.71 222.346C255.724 222.718 256.645 223.305 257.411 224.066C259.364 226.024 260.102 229.049 259.495 232.59V232.595Z" fill="url(#paint4_linear)"/>
</g>
<path d="M232.028 250.962L230.435 251.295C229.757 251.437 213.742 254.669 205.714 246.389C201.9 242.453 199.391 237.658 198.633 232.893C197.843 227.799 199.138 223.323 202.275 220.283C205.411 217.242 209.928 216.089 214.991 217.035C219.731 217.92 224.445 220.576 228.259 224.516C236.282 232.797 232.549 248.706 232.387 249.378L232.028 250.962ZM208.491 222.387C207.516 222.725 206.626 223.27 205.881 223.985C203.979 225.832 203.22 228.715 203.741 232.109C204.318 235.827 206.331 239.626 209.412 242.807C214.202 247.75 223.848 247.041 227.718 246.52C228.361 242.671 229.372 233.05 224.582 228.108C221.501 224.931 217.768 222.797 214.066 222.109C212.215 221.71 210.293 221.806 208.491 222.387Z" fill="#2CC1D7"/>
<path d="M229.661 251.032L229.306 249.444C229.155 248.766 225.695 232.797 233.859 224.658C237.744 220.788 242.499 218.214 247.254 217.409C252.312 216.549 256.829 217.779 259.9 220.874C262.97 223.97 264.199 228.462 263.324 233.52C262.505 238.27 259.915 243.02 256.03 246.89C247.866 255.028 231.906 251.518 231.244 251.366L229.661 251.032ZM253.688 222.842C251.899 222.229 249.979 222.098 248.124 222.463C244.411 223.09 240.642 225.159 237.501 228.28C232.625 233.141 233.454 242.772 234.046 246.637C237.906 247.223 247.542 248.099 252.413 243.242C255.549 240.116 257.623 236.353 258.266 232.62C258.847 229.236 258.139 226.337 256.268 224.461C255.534 223.742 254.654 223.19 253.688 222.842Z" fill="#2CC1D7"/>
<g opacity="0.5">
<path opacity="0.5" d="M307.767 246.778H152.47V277.852H160.538V367.785H299.699V277.852H307.767V246.778Z" fill="url(#paint5_linear)"/>
</g>
<path d="M297.938 256.172H162.298V366.258H297.938V256.172Z" fill="#4F4F4F"/>
<path d="M242.894 275.829H217.339V366.252H242.894V275.829Z" fill="#2CC1D7"/>
<path opacity="0.1" d="M297.938 250.274H162.298V277.796H297.938V250.274Z" fill="black"/>
<path d="M305.805 248.306H154.438V275.829H305.805V248.306Z" fill="#4F4F4F"/>
<path d="M242.894 248.306H217.339V275.829H242.894V248.306Z" fill="#2CC1D7"/>
<path d="M9.69737 180.363C9.14612 179.812 8.25737 179.812 7.70612 180.363L-1.64262 189.712C-2.08137 190.151 -2.08137 190.86 -1.64262 191.298L7.70612 200.647C8.25737 201.198 9.14612 201.198 9.69737 200.647C10.2486 200.096 10.2486 199.207 9.69737 198.656L1.55238 190.5L9.70862 182.343C10.2486 181.803 10.2486 180.903 9.69737 180.363Z" fill="#2CC1D7"/>
</g>
<defs>
<linearGradient id="paint0_linear" x1="154.018" y1="248.756" x2="212.66" y2="248.756" gradientUnits="userSpaceOnUse">
<stop stop-color="#808080" stop-opacity="0.25"/>
<stop offset="0.54" stop-color="#808080" stop-opacity="0.12"/>
<stop offset="1" stop-color="#808080" stop-opacity="0.1"/>
</linearGradient>
<linearGradient id="paint1_linear" x1="10731.2" y1="85168.2" x2="11341.5" y2="85168.2" gradientUnits="userSpaceOnUse">
<stop stop-color="#808080" stop-opacity="0.25"/>
<stop offset="0.54" stop-color="#808080" stop-opacity="0.12"/>
<stop offset="1" stop-color="#808080" stop-opacity="0.1"/>
</linearGradient>
<linearGradient id="paint2_linear" x1="12528.3" y1="61231.9" x2="13095.5" y2="61231.9" gradientUnits="userSpaceOnUse">
<stop stop-color="#808080" stop-opacity="0.25"/>
<stop offset="0.54" stop-color="#808080" stop-opacity="0.12"/>
<stop offset="1" stop-color="#808080" stop-opacity="0.1"/>
</linearGradient>
<linearGradient id="paint3_linear" x1="167842" y1="106774" x2="167842" y2="20112.7" gradientUnits="userSpaceOnUse">
<stop stop-color="#808080" stop-opacity="0.25"/>
<stop offset="0.54" stop-color="#808080" stop-opacity="0.12"/>
<stop offset="1" stop-color="#808080" stop-opacity="0.1"/>
</linearGradient>
<linearGradient id="paint4_linear" x1="43609.5" y1="22025.3" x2="43609.5" y2="19294.6" gradientUnits="userSpaceOnUse">
<stop stop-color="#808080" stop-opacity="0.25"/>
<stop offset="0.54" stop-color="#808080" stop-opacity="0.12"/>
<stop offset="1" stop-color="#808080" stop-opacity="0.1"/>
</linearGradient>
<linearGradient id="paint5_linear" x1="70800.4" y1="88228.3" x2="70800.4" y2="59281.1" gradientUnits="userSpaceOnUse">
<stop stop-color="#808080" stop-opacity="0.25"/>
<stop offset="0.54" stop-color="#808080" stop-opacity="0.12"/>
<stop offset="1" stop-color="#808080" stop-opacity="0.1"/>
</linearGradient>
<clipPath id="clip0">
<rect width="424.5" height="367.785" fill="white"/>
</clipPath>
</defs>
</svg>
