<svg width="27" height="28" viewBox="0 0 27 28" fill="none" xmlns="http://www.w3.org/2000/svg">
<path d="M13.5 7.8125C16.605 7.8125 19.125 10.3325 19.125 13.4375C19.125 14.0113 19.0125 14.5625 18.855 15.08L22.2975 18.5225C23.8612 17.1388 25.0987 15.4062 25.875 13.4262C23.9287 8.49875 19.125 5 13.5 5C12.0712 5 10.6987 5.225 9.405 5.64125L11.8462 8.0825C12.375 7.925 12.9263 7.8125 13.5 7.8125ZM3.04875 4.055C2.61 4.49375 2.61 5.2025 3.04875 5.64125L5.265 7.8575C3.4425 9.30875 1.99125 11.2212 1.125 13.4375C3.07125 18.3763 7.875 21.875 13.5 21.875C15.21 21.875 16.8412 21.5375 18.3487 20.9525L21.4088 24.0125C21.8475 24.4513 22.5563 24.4513 22.995 24.0125C23.4338 23.5738 23.4338 22.865 22.995 22.4263L4.64625 4.055C4.2075 3.61625 3.4875 3.61625 3.04875 4.055ZM13.5 19.0625C10.395 19.0625 7.875 16.5425 7.875 13.4375C7.875 12.5712 8.0775 11.75 8.42625 11.03L10.1925 12.7963C10.1588 12.9988 10.125 13.2125 10.125 13.4375C10.125 15.305 11.6325 16.8125 13.5 16.8125C13.725 16.8125 13.9275 16.7788 14.1412 16.7338L15.9075 18.5C15.1763 18.86 14.3663 19.0625 13.5 19.0625ZM16.8413 13.0662C16.6725 11.4913 15.435 10.265 13.8713 10.0962L16.8413 13.0662Z" fill="#4F4F4F"/>
</svg>
