<svg width="20" height="20" viewBox="0 0 20 20" fill="none" xmlns="http://www.w3.org/2000/svg">
<path fill-rule="evenodd" clip-rule="evenodd" d="M7.33317 11.3334C9.54231 11.3334 11.3332 9.54255 11.3332 7.33342C11.3332 5.12428 9.54231 3.33341 7.33317 3.33341C5.12403 3.33341 3.33317 5.12428 3.33317 7.33342C3.33317 9.54255 5.12403 11.3334 7.33317 11.3334ZM7.33317 14.0001C11.0151 14.0001 13.9998 11.0153 13.9998 7.33342C13.9998 3.65152 11.0151 0.666748 7.33317 0.666748C3.65127 0.666748 0.666504 3.65152 0.666504 7.33342C0.666504 11.0153 3.65127 14.0001 7.33317 14.0001Z" fill="#BDBDBD"/>
<path d="M10.2899 10.2898C10.7236 9.85611 11.4268 9.85611 11.8605 10.2898L18.6665 17.0959C19.1002 17.5296 19.1002 18.2328 18.6665 18.6665C18.2328 19.1002 17.5296 19.1002 17.0959 18.6665L10.2899 11.8604C9.85617 11.4267 9.85617 10.7235 10.2899 10.2898Z" fill="#BDBDBD"/>
<path fill-rule="evenodd" clip-rule="evenodd" d="M11.8605 10.2898C11.4268 9.85611 10.7236 9.85611 10.2899 10.2898C9.85617 10.7235 9.85617 11.4267 10.2899 11.8604L17.0959 18.6665C17.5296 19.1002 18.2328 19.1002 18.6665 18.6665C19.1002 18.2328 19.1002 17.5296 18.6665 17.0959L11.8605 10.2898Z" fill="#BDBDBD"/>
</svg>
