<svg width="24" height="24" viewBox="0 0 24 24" fill="none" xmlns="http://www.w3.org/2000/svg">
<path d="M12 12C14.21 12 16 10.21 16 8.00003C16 5.79003 14.21 4.00003 12 4.00003C9.79 4.00003 8 5.79003 8 8.00003C8 10.21 9.79 12 12 12ZM12 6.00003C13.1 6.00003 14 6.90003 14 8.00003C14 9.10003 13.1 10 12 10C10.9 10 10 9.10003 10 8.00003C10 6.90003 10.9 6.00003 12 6.00003ZM12 13C9.33 13 4 14.34 4 17V19C4 19.55 4.45 20 5 20H19C19.55 20 20 19.55 20 19V17C20 14.34 14.67 13 12 13ZM18 18H6V17.01C6.2 16.29 9.3 15 12 15C14.7 15 17.8 16.29 18 17V18Z" fill="#BDBDBD"/>
<circle cx="12" cy="8.25" r="3" fill="#BDBDBD"/>
<path d="M6 15.375L4.875 18.375L6 18.75L18.75 19.125V16.5L16.5 15L10.875 13.875L6 15.375Z" fill="#BDBDBD"/>
</svg>
