<svg width="24" height="24" viewBox="0 0 24 24" fill="none" xmlns="http://www.w3.org/2000/svg">
<path d="M23 8.00003V18C23 19.1 22.1 20 21 20H5C4.45 20 4 19.55 4 19C4 18.45 4.45 18 5 18H21V8.00003C21 7.45003 21.45 7.00003 22 7.00003C22.55 7.00003 23 7.45003 23 8.00003ZM4 16C2.34 16 1 14.66 1 13V7.00003C1 5.34003 2.34 4.00003 4 4.00003H16C17.66 4.00003 19 5.34003 19 7.00003V14C19 15.1 18.1 16 17 16H4ZM7 10C7 11.66 8.34 13 10 13C11.66 13 13 11.66 13 10C13 8.34003 11.66 7.00003 10 7.00003C8.34 7.00003 7 8.34003 7 10Z" fill="#BDBDBD"/>
</svg>
