<svg width="27" height="28" viewBox="0 0 27 28" fill="none" xmlns="http://www.w3.org/2000/svg">
<path d="M20.25 9.5H19.125V7.25C19.125 4.145 16.605 1.625 13.5 1.625C10.395 1.625 7.875 4.145 7.875 7.25V9.5H6.75C5.5125 9.5 4.5 10.5125 4.5 11.75V23C4.5 24.2375 5.5125 25.25 6.75 25.25H20.25C21.4875 25.25 22.5 24.2375 22.5 23V11.75C22.5 10.5125 21.4875 9.5 20.25 9.5ZM13.5 19.625C12.2625 19.625 11.25 18.6125 11.25 17.375C11.25 16.1375 12.2625 15.125 13.5 15.125C14.7375 15.125 15.75 16.1375 15.75 17.375C15.75 18.6125 14.7375 19.625 13.5 19.625ZM10.125 9.5V7.25C10.125 5.3825 11.6325 3.875 13.5 3.875C15.3675 3.875 16.875 5.3825 16.875 7.25V9.5H10.125Z" fill="#4F4F4F"/>
</svg>
