<svg width="24" height="24" viewBox="0 0 24 24" fill="none" xmlns="http://www.w3.org/2000/svg">
<path d="M19 3.99997H18V2.99997C18 2.44997 17.55 1.99997 17 1.99997C16.45 1.99997 16 2.44997 16 2.99997V3.99997H8V2.99997C8 2.44997 7.55 1.99997 7 1.99997C6.45 1.99997 6 2.44997 6 2.99997V3.99997H5C3.89 3.99997 3.01 4.89997 3.01 5.99997L3 20C3 21.1 3.89 22 5 22H19C20.1 22 21 21.1 21 20V5.99997C21 4.89997 20.1 3.99997 19 3.99997ZM19 19C19 19.55 18.55 20 18 20H6C5.45 20 5 19.55 5 19V8.99997H19V19ZM7 11H9V13H7V11ZM11 11H13V13H11V11ZM15 11H17V13H15V11Z" fill="#BDBDBD"/>
</svg>
