<svg width="242" height="56" viewBox="0 0 242 56" fill="none" xmlns="http://www.w3.org/2000/svg">
<path d="M36.2023 40.8498C33.9384 40.8498 31.6968 40.4049 29.6052 39.5404C27.5137 38.6759 25.6134 37.4088 24.0126 35.8114C22.4119 34.2141 21.1422 32.3177 20.276 30.2307C19.4097 28.1437 18.964 25.9068 18.9641 23.6479C14.392 23.6479 10.0071 25.4603 6.77408 28.6862C3.54108 31.9122 1.72479 36.2876 1.72479 40.8498H36.2023Z" fill="#ED5481"/>
<path d="M36.2023 40.8498V6.45328C31.6315 6.45328 27.2478 8.26466 24.0152 11.4891C20.7826 14.7136 18.9657 19.0871 18.9641 23.6479C21.228 23.6479 23.4696 24.0929 25.5611 24.9574C27.6526 25.8219 29.553 27.089 31.1537 28.6863C32.7545 30.2837 34.0242 32.18 34.8904 34.267C35.7567 36.3541 36.2024 38.5909 36.2023 40.8498Z" fill="#2CC1D7"/>
<path d="M36.2023 40.8498C36.2024 38.5909 35.7567 36.354 34.8904 34.267C34.0242 32.18 32.7545 30.2837 31.1537 28.6863C29.553 27.089 27.6526 25.8218 25.5611 24.9574C23.4696 24.0929 21.228 23.6479 18.9641 23.6479C18.964 25.9068 19.4097 28.1437 20.2759 30.2307C21.1422 32.3177 22.4119 34.2141 24.0126 35.8114C25.6133 37.4088 27.5137 38.6759 29.6052 39.5404C31.6967 40.4049 33.9384 40.8498 36.2023 40.8498Z" fill="#2C537F"/>
<path d="M40.5505 6.37967H51.3019C56.2005 6.37967 59.7565 7.07524 61.9699 8.46639C64.1834 9.85754 65.2901 12.0702 65.2901 15.1043C65.2901 17.1633 64.8063 18.8529 63.8386 20.1733C63.3881 20.8088 62.8138 21.3473 62.15 21.7564C61.4863 22.1655 60.7467 22.437 59.9754 22.5545V22.7959C62.1639 23.2794 63.7419 24.189 64.7095 25.5247C65.6771 26.8603 66.1609 28.6364 66.1609 30.8531C66.1609 33.9975 65.0228 36.4495 62.7464 38.2091C60.4701 39.9688 57.3786 40.849 53.4718 40.8498H40.5505V6.37967ZM47.8754 20.0345H52.1305C54.1149 20.0345 55.5522 19.7279 56.4424 19.1148C57.3326 18.5017 57.7761 17.4879 57.7729 16.0735C57.7729 14.7531 57.2891 13.8061 56.3215 13.2324C55.3538 12.6587 53.8218 12.3719 51.7253 12.3719H47.8754V20.0345ZM47.8754 25.8348V34.8178H52.6481C54.664 34.8178 56.1529 34.4328 57.1149 33.6628C58.0769 32.8928 58.5571 31.7136 58.5554 30.1254C58.5554 27.265 56.5077 25.8348 52.4123 25.8348H47.8754Z" fill="#2C537F"/>
<path d="M83.5866 41.3217C79.3339 41.3217 76.0101 40.1506 73.6152 37.8084C71.2204 35.4663 70.0234 32.1497 70.0242 27.8588C70.0242 23.4415 71.1309 20.0268 73.3443 17.6146C75.5577 15.2025 78.6174 13.9956 82.5234 13.994C86.2576 13.994 89.1641 15.0548 91.2428 17.1765C93.3216 19.2983 94.3614 22.2298 94.3622 25.9712V29.4603H77.3249C77.4055 31.5032 78.0123 33.0987 79.1452 34.2469C80.2781 35.3951 81.869 35.9679 83.918 35.9655C85.4362 35.9733 86.9504 35.8073 88.4307 35.4707C89.9626 35.0997 91.4515 34.5703 92.8733 33.8909V39.4547C91.5914 40.0917 90.2335 40.5633 88.8323 40.8583C87.3994 41.1672 85.6508 41.3217 83.5866 41.3217ZM82.5706 19.1148C81.0425 19.1148 79.8455 19.5976 78.9795 20.5631C78.1135 21.5286 77.6172 22.9001 77.4906 24.6774H87.6034C87.5719 22.9009 87.1075 21.5294 86.21 20.5631C85.3125 19.5968 84.0994 19.1128 82.5706 19.1112V19.1148Z" fill="#2C537F"/>
<path d="M114.139 14C114.956 13.9848 115.771 14.056 116.573 14.2124L116.03 20.9553C115.334 20.7832 114.619 20.7021 113.902 20.714C111.603 20.714 109.811 21.3037 108.527 22.4833C107.242 23.6628 106.601 25.3122 106.601 27.4315V40.8498H99.3939V14.49H104.852L105.916 18.9229H106.27C107.062 17.4752 108.203 16.2473 109.59 15.3505C110.94 14.462 112.522 13.992 114.139 14Z" fill="#2C537F"/>
<path d="M134.886 14C138.004 14 140.446 15.2141 142.211 17.6424C143.976 20.0707 144.858 23.3993 144.857 27.6283C144.857 31.982 143.947 35.3532 142.128 37.7421C140.308 40.1309 137.831 41.3257 134.696 41.3266C131.593 41.3266 129.159 40.2025 127.396 37.9545H126.9L125.69 40.851H120.188V4.16138H127.396V12.6966C127.396 13.782 127.301 15.5191 127.111 17.9079H127.396C129.081 15.3026 131.578 14 134.886 14ZM132.57 19.7533C130.789 19.7533 129.49 20.2992 128.672 21.391C127.853 22.4829 127.428 24.2836 127.396 26.7931V27.5703C127.396 30.4009 127.817 32.4289 128.659 33.6543C129.502 34.8797 130.837 35.4924 132.664 35.4924C134.145 35.4924 135.322 34.8129 136.197 33.454C137.072 32.095 137.509 30.1181 137.508 27.5233C137.508 24.9293 137.067 22.9841 136.185 21.6879C135.303 20.3917 134.098 19.7452 132.57 19.7484V19.7533Z" fill="#2C537F"/>
<path d="M166.606 40.8498L165.213 37.2666H165.023C163.813 38.7913 162.563 39.8481 161.273 40.4371C159.983 41.0261 158.309 41.3209 156.251 41.3217C153.715 41.3217 151.719 40.5976 150.262 39.1493C148.805 37.7011 148.076 35.6417 148.076 32.9712C148.076 30.1736 149.057 28.1107 151.018 26.7823C152.979 25.4539 155.939 24.7201 159.899 24.5809L164.483 24.4397V23.2847C164.483 20.6126 163.112 19.2766 160.371 19.2766C158.259 19.2766 155.778 19.913 152.927 21.1859L150.541 16.3293C153.581 14.7419 156.952 13.9481 160.654 13.9481C164.202 13.9481 166.919 14.7181 168.806 16.2581C170.693 17.7981 171.638 20.1403 171.641 23.2847V40.8498H166.606ZM164.48 28.6373L161.698 28.7314C159.601 28.7942 158.042 29.1711 157.019 29.8623C155.997 30.5534 155.485 31.6066 155.483 33.0219C155.483 35.0495 156.649 36.0633 158.98 36.0633C160.649 36.0633 161.984 35.5842 162.985 34.6259C163.985 33.6676 164.486 32.3943 164.486 30.8061L164.48 28.6373Z" fill="#2C537F"/>
<path d="M201.039 14.49V18.1445L196.903 19.2054C197.66 20.3873 198.054 21.7641 198.037 23.1664C198.037 25.997 197.048 28.2016 195.072 29.7802C193.096 31.3588 190.351 32.1485 186.838 32.1493L185.541 32.0793L184.478 31.9586C183.738 32.5219 183.367 33.1507 183.367 33.845C183.367 34.8822 184.691 35.4007 187.337 35.4007H191.826C194.729 35.4007 196.938 36.0219 198.454 37.2642C199.97 38.5065 200.73 40.3297 200.735 42.7338C200.735 45.8138 199.447 48.2031 196.871 49.9016C194.294 51.6001 190.596 52.4489 185.777 52.4481C182.092 52.4481 179.276 51.8077 177.329 50.5267C175.383 49.2458 174.411 47.4496 174.413 45.138C174.413 43.5497 174.909 42.2221 175.901 41.1552C176.893 40.0883 178.35 39.3259 180.273 38.8681C179.504 38.531 178.837 37.9983 178.338 37.3233C177.787 36.6088 177.511 35.8505 177.511 35.0483C177.511 34.0426 177.802 33.2058 178.385 32.538C178.968 31.8701 179.811 31.2136 180.913 30.5683C179.538 29.9812 178.384 28.9744 177.617 27.6923C176.805 26.3719 176.4 24.8158 176.401 23.024C176.401 20.1476 177.338 17.9232 179.212 16.3511C181.085 14.7789 183.76 13.9952 187.234 14C188.116 14.0102 188.996 14.0771 189.869 14.2004C190.885 14.3339 191.534 14.4321 191.817 14.4948L201.039 14.49ZM180.646 44.5755C180.646 45.5652 181.123 46.3432 182.076 46.9097C183.029 47.4761 184.364 47.7577 186.08 47.7545C188.661 47.7545 190.685 47.4009 192.153 46.6936C193.622 45.9864 194.354 45.0209 194.351 43.7971C194.351 42.8074 193.918 42.1235 193.051 41.7454C192.184 41.3672 190.845 41.1789 189.034 41.1805H185.299C183.976 41.1805 182.869 41.4907 181.979 42.1111C181.089 42.7314 180.644 43.5529 180.646 44.5755ZM183.269 23.1193C183.269 24.5491 183.596 25.6808 184.249 26.5143C184.902 27.3479 185.897 27.7647 187.234 27.7647C188.589 27.7647 189.581 27.3479 190.211 26.5143C190.841 25.6808 191.156 24.5491 191.157 23.1193C191.157 19.9452 189.849 18.3577 187.234 18.3569C184.591 18.3569 183.269 19.9444 183.269 23.1193Z" fill="#2C537F"/>
<path d="M229.229 14.49V18.1445L225.092 19.2054C225.849 20.3872 226.244 21.7639 226.227 23.1664C226.227 25.997 225.238 28.2016 223.261 29.7802C221.284 31.3588 218.539 32.1485 215.027 32.1493L213.723 32.0793L212.66 31.9586C211.919 32.5219 211.549 33.1507 211.549 33.845C211.549 34.8821 212.873 35.4007 215.519 35.4007H220.012C222.91 35.4007 225.119 36.0219 226.639 37.2642C228.159 38.5065 228.92 40.3297 228.921 42.7338C228.921 45.8138 227.63 48.2031 225.05 49.9016C222.47 51.6001 218.775 52.4497 213.965 52.4505C210.279 52.4505 207.463 51.8101 205.517 50.5292C203.572 49.2482 202.598 47.4512 202.595 45.138C202.595 43.5497 203.091 42.2221 204.083 41.1552C205.075 40.0883 206.532 39.3259 208.455 38.8681C207.686 38.531 207.019 37.9983 206.52 37.3233C205.969 36.6088 205.693 35.8505 205.693 35.0483C205.693 34.0425 205.984 33.2058 206.567 32.538C207.15 31.8701 207.993 31.2136 209.095 30.5683C207.72 29.9812 206.566 28.9744 205.799 27.6923C204.987 26.3719 204.582 24.8158 204.582 23.024C204.582 20.1476 205.519 17.9232 207.393 16.3511C209.267 14.7789 211.946 13.9952 215.429 14C216.311 14.0102 217.191 14.0771 218.064 14.2004C219.08 14.3339 219.73 14.4321 220.014 14.4948L229.229 14.49ZM208.836 44.5755C208.836 45.5652 209.313 46.3432 210.266 46.9097C211.219 47.4761 212.554 47.7577 214.271 47.7545C216.851 47.7545 218.875 47.4009 220.344 46.6936C221.812 45.9864 222.545 45.0209 222.541 43.7971C222.541 42.8074 222.108 42.1235 221.241 41.7454C220.374 41.3672 219.037 41.1789 217.23 41.1805H213.498C212.175 41.1805 211.068 41.4907 210.178 42.1111C209.288 42.7314 208.84 43.5529 208.836 44.5755ZM211.46 23.1193C211.46 24.5491 211.786 25.6808 212.44 26.5143C213.093 27.3479 214.089 27.7647 215.429 27.7647C216.784 27.7647 217.776 27.3479 218.406 26.5143C219.036 25.6808 219.351 24.5491 219.352 23.1193C219.352 19.9452 218.044 18.3577 215.429 18.3569C212.783 18.3569 211.46 19.9444 211.46 23.1193Z" fill="#2C537F"/>
<path d="M232.335 7.67587C232.335 5.33449 233.643 4.1634 236.257 4.1626C238.872 4.16179 240.18 5.33289 240.18 7.67587C240.18 8.79185 239.853 9.66042 239.199 10.2816C238.545 10.9027 237.565 11.2133 236.257 11.2133C233.643 11.2133 232.335 10.0342 232.335 7.67587ZM239.849 40.8498H232.642V14.49H239.849V40.8498Z" fill="#2C537F"/>
</svg>
